<svg width="540" height="370" viewBox="0 0 540 370" fill="none" xmlns="http://www.w3.org/2000/svg">
<path fill-rule="evenodd" clip-rule="evenodd" d="M0 0H540V370H0V0Z" fill="white"/>
<path fill-rule="evenodd" clip-rule="evenodd" d="M0 34.571H540V158.839H0V34.571Z" fill="url(#paint0_linear)"/>
<path fill-rule="evenodd" clip-rule="evenodd" d="M251.274 243.076V214.813H274.711V242.081C274.711 242.081 275.024 258.827 260.05 269.648C260.05 269.648 236.431 285.76 215.47 266.663C215.47 266.663 204.812 256.17 204.001 244.768V136.192C204.001 136.192 203.329 93 247.284 93H304.132C304.132 93 311.754 93.1404 320.787 99.6679C320.787 99.6679 332.114 121.585 312.011 126.936C312.011 126.936 311.234 117.721 302.137 116.785H249.678C249.678 116.785 230.346 117.616 227.338 142.661V240.887C227.338 240.887 227.361 253.739 239.505 253.427C239.505 253.427 251.058 254.525 251.274 243.076Z" fill="#6736DD"/>
<path fill-rule="evenodd" clip-rule="evenodd" d="M312.492 127.567C312.492 127.567 311.758 123.044 309.733 120.76C309.733 120.76 323.15 116.904 320.865 99.1001C320.865 99.1001 331.844 124.319 312.492 127.567Z" fill="black"/>
<path opacity="0.5" fill-rule="evenodd" clip-rule="evenodd" d="M250.893 242.45C250.893 242.45 260.738 224.645 274.15 230.478V222.117H262.471C262.471 222.117 249.35 222.85 250.893 242.45Z" fill="black"/>
<path fill-rule="evenodd" clip-rule="evenodd" d="M263.52 127.275L304.276 127.233C304.276 127.233 328.931 130.148 320.351 99.1001C320.351 99.1001 335.476 108.407 335.145 127.275C335.145 127.275 334.629 150.758 310.113 150.758H269.344C269.344 150.758 263.52 150.758 263.52 156.629C263.52 156.629 263.52 162.499 269.344 162.499H310.113C310.113 162.499 332.391 166.354 335.046 188.57C335.046 188.57 337.882 215.335 310.113 221.206H263.52C263.52 221.206 251.872 222.599 251.872 242.45C251.872 242.45 236.141 234.365 238.889 217.498C238.889 217.498 241.584 197.723 263.52 197.723H304.289C304.289 197.723 310.113 197.723 310.113 191.852C310.113 191.852 310.113 185.982 304.289 185.982H263.52C263.52 185.982 238.983 180.111 238.889 156.629C238.889 156.629 238.355 130.948 263.52 127.275Z" fill="#10C4F8"/>
<defs>
<linearGradient id="paint0_linear" x1="0" y1="34.571" x2="54.318" y2="270.607" gradientUnits="userSpaceOnUse">
<stop stop-color="#F8F9FB"/>
<stop offset="1" stop-color="white"/>
</linearGradient>
</defs>
</svg>
