<svg width="22" height="30" viewBox="0 0 22 30" fill="none" xmlns="http://www.w3.org/2000/svg">
<path fill-rule="evenodd" clip-rule="evenodd" d="M7.73528 24.6027V19.9693H11.5702V24.4395C11.5702 24.4395 11.6214 27.1847 9.17135 28.9587C9.17135 28.9587 5.30663 31.5999 1.87678 28.4693C1.87678 28.4693 0.132884 26.7492 9.65377e-05 24.88V7.08062C9.65377e-05 7.08062 -0.109762 0 7.08252 0H16.3843C16.3843 0 17.6316 0.0230202 19.1096 1.09309C19.1096 1.09309 20.9629 4.686 17.6735 5.56334C17.6735 5.56334 17.5464 4.05259 16.0579 3.89923H7.47418C7.47418 3.89923 4.31098 4.03548 3.81873 8.14108V24.2438C3.81873 24.2438 3.82255 26.3507 5.80964 26.2994C5.80964 26.2994 7.69996 26.4796 7.73528 24.6027Z" fill="#6736DD"/>
<path fill-rule="evenodd" clip-rule="evenodd" d="M17.6898 5.56343C17.6898 5.56343 17.5683 4.84799 17.2329 4.48665C17.2329 4.48665 19.4556 3.87676 19.077 1.06055C19.077 1.06055 20.8957 5.04971 17.6898 5.56343Z" fill="black"/>
<path opacity="0.5" fill-rule="evenodd" clip-rule="evenodd" d="M7.72398 24.6027C7.72398 24.6027 9.35218 21.5455 11.5704 22.547V21.1113H9.63888C9.63888 21.1113 7.46882 21.2371 7.72398 24.6027Z" fill="black"/>
<path fill-rule="evenodd" clip-rule="evenodd" d="M9.65705 5.68448L16.4009 5.67763C16.4009 5.67763 20.4804 6.1559 19.0608 1.06055C19.0608 1.06055 21.5635 2.58802 21.5087 5.68448C21.5087 5.68448 21.4233 9.53836 17.3668 9.53836H10.6208C10.6208 9.53836 9.65705 9.53836 9.65705 10.5018C9.65705 10.5018 9.65704 11.4653 10.6208 11.4653H17.3668C17.3668 11.4653 21.0531 12.098 21.4924 15.7439C21.4924 15.7439 21.9615 20.1364 17.3668 21.1H9.65705C9.65705 21.1 7.72961 21.3286 7.72961 24.5865C7.72961 24.5865 5.12674 23.2596 5.58139 20.4915C5.58139 20.4915 6.02724 17.2461 9.65705 17.2461H16.403C16.403 17.2461 17.3668 17.2461 17.3668 16.2826C17.3668 16.2826 17.3668 15.3192 16.403 15.3192H9.65705C9.65705 15.3192 5.59699 14.3557 5.58139 10.5019C5.58139 10.5019 5.49307 6.2872 9.65705 5.68448Z" fill="#10C4F8"/>
</svg>
