<svg width="733" height="749" viewBox="0 0 733 749" fill="none" xmlns="http://www.w3.org/2000/svg">
<g clip-path="url(#clip0)">
<path d="M492.1 242C569.1 164 761.9 385.5 974.2 434.7C1115.8 467.5 1189 457.5 1193.9 404.7L1120.7 841C994.8 694.7 904.2 623.2 848.8 626.4C793.4 629.6 752.5 653.1 725.9 696.9C762.8 508.6 738 438.5 651.5 486.8C521.6 559.2 415.2 320 492.1 242Z" fill="url(#paint0_linear)"/>
<path d="M163.8 26.0001C96.6001 -57.9999 408.9 86.5001 621.2 135.7C762.8 168.5 848.9 173.2 879.5 149.9C668.3 258.6 535 304.4 479.7 287.1C424.4 269.8 388.8 306.8 372.8 397.9C409.7 209.6 384.9 139.5 298.4 187.8C168.6 260.2 231 110 163.8 26.0001Z" fill="url(#paint1_linear)"/>
<path d="M41.7001 290.6C80.9001 358.3 195.6 295 407.9 344.2C549.5 377 566.5 363 459 302C363 468.6 298.8 533.2 266.5 495.6C234.2 458 206.2 468.7 182.6 527.6C204.2 391.8 171.7 348 85.1001 396.3C-44.6999 468.7 2.60011 222.9 41.7001 290.6Z" fill="url(#paint2_linear)"/>
<path d="M912.1 829.5C822.8 893 671.4 641.4 470.8 556.1C337.1 499.2 263.2 496.4 249.2 547.5L397 322C446.2 420.5 538 446.4 672.3 399.6C873.8 329.4 675.2 469.8 857.8 498C1040.4 526.2 1001.5 766.1 912.1 829.5Z" fill="url(#paint3_linear)"/>
<path d="M397.5 416.1C397.4 415.8 397.8 415.5 397.7 415.2C398.4 415.1 398.5 414.9 399.1 414.1C399.4 414.6 398.1 415 397.5 416.1ZM396.5 416.1C395.7 416.7 395 418.7 393.7 418.5C394.9 417.2 395.4 416.7 395.3 416C395.8 415.8 396.1 415.9 396.9 415C396.8 415.4 396.4 415.9 396.6 416.3C396.3 416.5 396.3 416.2 396.5 416.1ZM404.8 407.3C403.4 407.4 406.1 405.8 406.8 404.7C406.8 405 406.3 405.4 406.6 405.6C406 406 404.5 406.7 404.8 407.3ZM519.7 352C515.4 351.5 510.8 349.7 506.4 349.5C507.3 349.3 509.7 349.6 512.3 350.1C514.9 350.7 517.7 351.6 519.7 352ZM356.4 450.7C355.9 450.8 355.4 451 355.4 450.6C352.8 451.3 352.2 452.1 349.7 452.6C349.9 453 350.3 453.3 351.3 453.2C352.1 452.6 353.3 451.5 354.8 451.8C354.8 451.5 354.9 451.2 355.5 450.9C355.5 451.1 356.3 450.9 356.4 450.7ZM349.3 452.7C347.3 452.9 348.2 454.1 349.4 453.4C349.5 453.6 349.6 453.8 350.4 453.6C350.4 453.1 349.2 453.3 349.3 452.7ZM368.7 444.2C369.5 444 371.7 442.4 371.5 441.9C371.2 442.3 370.5 442.7 369.9 443.1C369.2 443.5 368.6 443.9 368.7 444.2ZM372.8 441C374.3 440 377.1 437.7 376.2 437.6C375.1 438.7 373.2 440 372.8 441ZM368 442.3C367.8 442.9 367.2 443.5 366.5 444.1C366.1 444.4 365.7 444.7 365.2 445C364.8 445.3 364.2 445.6 363.7 445.9C362.7 446.5 361.7 447 361 447.5C360.3 448 359.9 448.4 360 448.8C361.7 447.7 361.4 447.9 363.3 447.4C362.6 446.6 364.6 446.5 364.9 445.6C365.4 445.3 365.4 445.7 365.8 445.5C366.8 444.6 366.4 444.3 368.4 443.6C368.4 443.1 369 442.7 369.7 442.3C370.4 441.8 371.2 441.3 371.8 440.7L371.6 440.4C371.4 440.5 371.2 440.6 371.2 440.5C370.4 441.2 370.4 441.8 369.3 442.6C368.9 442.2 368 442.9 368 442.3ZM382.5 430.6C382.2 430.2 381.4 430.6 381 430.5C380.5 430.9 380 431.3 379.5 431.7C379.8 432.2 378.8 433 378.1 433.7C377.8 433.4 377.1 433.6 377.5 432.9C377.2 433.8 376.6 435.1 377.6 434.9C376.8 435.1 377 435.6 376.6 436.1C377.1 436 380.3 433.3 377.9 434.7C380.1 433.2 380.6 431.9 382.5 430.6ZM506.2 437.8C506.1 438.5 509 437.1 509.1 436.8C507.8 437.2 508 437.1 506.2 437.8ZM424.8 375.5L422.5 377C422.8 377 424.1 376.2 425.4 375.4C426.7 374.6 427.9 373.7 428 373.3C426.2 374.3 425.4 374.9 424.8 375.5ZM451.6 358.5C454.1 358.3 460 355.8 462.4 354.8C460.6 355.3 458.8 355.9 457 356.6L454.4 357.6C453.6 357.9 452.7 358.2 451.6 358.5ZM475.9 351.3C475 351.4 471.7 351.8 470.5 352.8C471 352.6 471.8 352.4 472.7 352.2L475.5 351.6C477.3 351.1 478.2 350.9 475.9 351.3ZM457.5 449.2C455.7 448.9 452.6 448.7 449.3 448C447.7 447.7 446 447.3 444.5 446.8C443.1 446.4 441.8 445.8 440.6 445.1C442.1 445.6 443.4 446.1 444.7 446.4C446 446.7 447.2 447.1 448.4 447.3C449.6 447.5 450.9 447.8 452.2 447.9C453.5 448.1 455 448.2 456.6 448.3C456.6 447.9 454.9 448.1 454.2 447.9C459.2 448.3 463.8 448.2 467.9 447.8C472.1 447.4 475.9 446.8 479.6 446C486.9 444.5 493.6 442.5 501 440C502.1 439.5 501.5 439.2 501.8 439C504.3 438.1 506.8 437.1 509.3 436.1C509.3 437.1 510.7 436.5 511.6 436.4C512.6 436.1 511 435.8 512 435.4C511.8 435.1 511 435.5 510.1 435.9C514.8 433.6 520.8 430.5 526.5 425.9C529.3 423.6 532.2 420.9 534.6 417.7C537 414.6 539.2 411.1 540.7 407.4C540.5 407 541.7 405.1 541 405.3C542.6 402.7 543.4 399.7 543.7 396.6C544 393.5 543.7 390.4 543.4 387C543 388 543.2 385.4 542.2 384.2C541.9 383.2 542.2 383.7 542.4 383.7C540.6 377.7 537 372.4 532.7 368.4C528.3 364.3 523.2 361.4 518 359.5C512.8 357.7 507.6 356.8 502.9 356.6C498.1 356.4 493.8 356.7 490.1 357.3C487 357.2 483.7 357.6 479.7 358.8C473.1 359.9 465.7 361.5 460.4 364.6C460.2 364.4 460.6 364.2 461 364C458 364.7 453.2 366.5 449.9 368.2C449.1 368.5 450.5 368.4 450.2 369C449.5 369.4 447.9 369.8 447.9 370.2C446.1 370.3 449.8 369.3 449 369C446.6 369.6 444.4 371.1 442.5 372.6C437.3 374.8 432 378 427.4 381.4C422.7 384.8 418.7 388.5 415.5 391.2C415.3 392 417 390.5 416.1 391.4C415.6 391.7 415.7 391.9 415.8 392.1C414.7 392.9 415.6 391.6 414.7 391.9C409.7 396.9 407.4 399 404.5 403C404.7 401.9 404 403.4 403.5 403.5C402.8 404.8 402.7 406 400.9 407.7C400.4 407.3 402.3 405.8 402.7 404.8C399.1 408.3 395.8 411.4 393 416.3C393.8 416.6 394.4 414.6 395 415.2C393.6 417.4 392.3 419 390.3 420.4C390.2 420.2 390.8 419.8 390.6 419.6C390.7 419.9 387.8 422.6 388.4 423.3C386.7 424.1 385.8 425.4 386.2 426.4C385.3 426.9 384.1 427.9 383.5 427.8C383.3 428.2 383.8 428.1 383 428.9C384.7 428.6 385.3 427.6 387.5 425.5C387.8 424.8 387.1 425.4 386.9 424.8C388.2 423.8 387.6 425.1 388.9 424.2C390.9 422.1 390.6 421.6 392.8 419.6C393.1 421.1 390.3 423.1 388.9 424.7C388.7 425.3 387.4 427.1 387.5 427.1C387.3 427.7 386.8 427.5 386.9 427C384.4 429.5 384.8 430.2 384.9 431.1C383.9 431.7 383.6 431.5 383.6 430.8C383.1 431.4 382.4 432 381.8 432.6C381.1 433.2 380.4 433.8 379.8 434.4C378.6 435.6 377.6 436.8 377.9 437.8C377.5 437.9 377.3 437.7 376.7 438.2C376.7 439.3 374.1 439.9 374.1 441.3C372.4 441.5 370.6 443.8 369.2 444.8L368.8 444C367.9 444.6 367 445.3 366.1 446C365.2 446.7 364.2 447.4 363.2 448C364 448.1 364.9 447.5 365.9 446.7C366.8 446 367.7 445.1 368.7 444.6C366.6 446.7 363.6 448.8 360.6 450.5C357.5 452.2 354.2 453.6 350.1 454.7L353.5 453.4C354.6 452.9 355.7 452.5 356.7 452C357.7 451.5 358.8 451.1 359.8 450.5C360.3 450.2 360.8 449.9 361.4 449.6L363 448.6C361.8 448.6 361.1 449.9 360 449.7C358.9 450.6 356.9 451.7 354.8 452.5C353.8 452.9 352.7 453.2 351.8 453.4C350.9 453.6 350.1 453.8 349.5 453.7C348 454.9 343.5 455.5 338.4 455.5C336.4 454.9 340.2 455.3 340.2 455C340.1 454.4 337.4 455.2 338 454.4C340.6 454.7 340.5 454.5 341.3 455.1C341.4 454.3 342.8 455 343 454.3C344.1 454.3 344 454.6 344.1 454.8C344.5 454.3 344.6 453.7 346.6 454C346.5 453.5 345.3 453.5 344.1 453.6C342.9 453.7 341.6 453.9 341.4 454.2C340.7 454.1 340 454 339.2 453.9C338.4 453.8 337.7 453.7 336.9 453.6C335.3 453.3 333.7 453.1 332.2 452.7C330.9 452.2 331.1 451.8 331.4 451.4C331.3 451.5 330.9 451.4 330.5 451.1C330 450.8 329.6 450.5 329.2 450.1C328.4 449.4 327.9 448.6 328.6 448.7C327.8 448.1 327.3 447.5 326.7 447C326.2 446.5 325.7 446.2 325.4 445.7C324.7 444.9 323.9 444.1 323.1 442.7C324.6 443.8 322.9 442.2 324.5 443C324.5 442.4 323.5 440.8 323.1 439.8C323.5 439.1 324.7 440.8 325.4 440.8C324.1 439 326.4 440.9 324.3 438.4C325.1 438.8 326.2 439.9 325 437.9C325.4 437.3 326.4 439.2 326.8 439C327.2 438.6 326.7 437.5 327.2 437.1C327.5 436.7 328 437.5 328.2 437L329.3 437.9C329.7 438.2 330.1 438.4 330.5 438.6C330.9 438.8 331.3 439.1 331.8 439.3L333.1 439.8C334.9 440.4 336.7 440.7 338.7 440.7C339.6 440.8 340.6 440.6 341.5 440.6C342 440.6 342.5 440.5 342.9 440.4C343.4 440.3 343.9 440.3 344.3 440.1C346.2 439.8 348.1 439.1 350 438.5C352.9 437.4 355.7 435.9 358.3 434.2L359.3 433.5L360.3 432.7L362.3 431.2C363.6 430.2 364.9 429 366.2 428C371.4 423.5 376.3 418.5 381.2 413.3C387.2 407 394 399.3 400.8 392.5C406.6 386.7 412.1 381.6 417.9 377.2C423.5 372.9 429.3 369 435.5 365.6C441.6 362.2 448.2 359 455.7 356.2C463.2 353.4 471.7 350.9 481.8 349.3C489.9 348 499.3 346.9 509.5 348.3C512 348.6 514.6 349.1 517.1 349.8C518.4 350.1 519.6 350.5 520.9 351C522.2 351.5 523.5 351.9 524.7 352.5C527.2 353.6 529.5 354.9 531.8 356.3C534 357.7 536.1 359.4 538 361.1C539.8 362.7 540.5 363.6 540.6 363.8C540.8 364 540.3 363.6 539.7 363C539 362.3 538.1 361.5 537.2 360.8L535.1 359.1C531 356 526.7 353.7 522.2 352C517.8 350.3 513.4 349.3 509.1 348.7C500.5 347.5 492.2 348 483.7 349.5C485.7 349.5 489.6 349 492.2 348.7C488.5 349.2 484.8 349.8 481.2 350.5C479.3 350.9 477.4 351.2 475.6 351.7C473.7 352.1 471.8 352.6 469.9 353C462.3 354.9 454.8 357.4 448.3 360.3C448.6 359.6 449.6 359.6 451.1 358.8C445.8 360.3 442.3 362.7 436.4 365.5C437.3 365.4 438.3 365 439.4 364.3C440.5 363.7 441.8 362.8 443.6 362.3C444.2 362.1 444.9 361.6 445.1 361.8L443.7 362.4C437.9 365.5 432 368.8 426.6 372.5C421.2 376.1 416.1 380.1 411.9 384.2C415.2 381.4 419 378.7 422.9 375.9C426.9 373.1 431.1 370.4 435.3 367.5C435.2 367.7 435 368 435.5 367.8C443.3 363.4 451.1 360.1 458.6 357.3C448.6 361.3 438.5 366 428.8 372.6C433.8 370.1 438.9 366.5 445.6 363.8C446.4 363.5 446.2 363.3 446.1 363C451 361.4 455.7 359.4 460.4 357.9C464.8 356.5 469.2 355.3 473.7 354.3C478.2 353.3 482.5 352.5 487.1 352C496.1 350.9 505.7 350.7 515.6 353.2C518.1 353.8 520.5 354.7 523 355.7C525.5 356.7 527.9 358 530.1 359.4C534.7 362.3 538.9 366.1 542.4 370.9C544.2 373.4 545.7 376.1 546.8 378.9C548 381.8 548.8 385 549.1 388.2C549.5 391.4 549.5 394.7 549 397.8C548.5 401 547.8 404.1 546.7 407.1C545.9 409.1 545.1 410.9 543.8 413.4C543.5 413.9 543.3 414.4 542.9 414.9C542.6 415.4 542.2 415.8 541.9 416.3C541.2 417.2 540.5 418.1 539.8 419C538.1 421.3 536.4 423.7 534.4 425.7C532.5 427.7 530.5 429.3 528.4 430.1C527.2 431.2 524.2 433 525.5 431.9C528.2 429.8 530.7 427.7 533 425.6C535.4 423.4 537.4 421.2 539.1 419C542.5 414.3 545.2 409.1 546.8 403.5C547.6 400.7 548.1 397.7 548.3 394.7C548.5 391.7 548.3 388.6 547.7 385.7C546.6 379.7 543.8 374.2 540.3 369.8C538.6 367.7 536.7 365.7 534.6 363.9C532.6 362.2 530.4 360.7 528.2 359.4C531.9 361.9 535.4 364.8 538.4 368.2C540 369.9 541.3 371.8 542.6 373.8C543.8 375.8 544.9 377.9 545.8 380.2C547.6 384.7 548.3 389.6 548.1 394.1C548 398.4 547.1 402.7 545.5 406.7C544.1 410.2 542.2 413.9 539.9 417.2C537.6 420.5 534.9 423.4 532.4 425.6C526.8 430.4 520.5 434.1 514.2 437.1C507.9 440.1 501.5 442.3 495.2 444.4C488.9 446.4 482.3 448.2 475.4 449.2C468.5 450.2 461.3 450.4 454.1 449.2C455.4 449.2 456.7 449.3 457.5 449.2ZM382.2 432.2C382.7 431.7 383.4 432.5 382.3 433C382.3 432.8 382.5 432.6 382.4 432.5C380.8 433.3 382.5 433.4 381.2 434.1C381.5 433 380.4 434.7 379.3 435.4C380.2 434.1 381.4 433.1 382.2 432.2ZM397.8 413.3C398.4 413.1 398.8 412.1 399.9 411.3C399.5 412.6 398.4 413.4 398.3 414.3C397.4 414.8 397.8 413.6 397.8 413.3ZM402.7 408.8C402.9 408.6 403 408.6 403.1 408.7C403.3 408.1 402.9 407.3 403.9 406.9C404.2 407.2 402.9 408.1 403.7 408.3C403.3 408.9 402.9 409.1 402.7 408.8ZM401.8 410C401.1 410.4 402.3 408.1 402.9 408C403.2 408.4 402 409.4 401.8 410ZM405.5 404.9L405.9 405.3C405.4 405.7 404.7 406.7 404.6 406C405.1 405.6 405 405.4 405.5 404.9ZM411.8 398.9C412.1 398.7 412.2 399 412.6 398.7C412.5 399.3 411.1 400.2 411.1 400.8C410.1 401.1 411.3 399.5 412.1 399.2L411.8 398.9ZM410.1 400.9C409.5 401.2 407.5 403.2 407.8 403.7C407.1 403.8 407 404 406.4 404.8C405.9 404.6 406.7 404 406.4 403.8C408.2 402.9 409 400.4 410.1 400.9ZM429.2 384.3C430.3 383.4 430 384.7 430.5 384.9C429.5 385.5 428.9 384.7 429.2 384.3ZM440.5 376.5C440.2 377 439.4 377.5 438.4 378C438.4 377.5 440 376.5 440.5 376.5ZM417.7 391.3C417.6 391.5 417.6 391.8 417.7 391.9C416.7 391.7 414.6 395.8 414.3 394C415.1 393.9 415.6 393.3 416.1 392.6C416.6 392.1 417.1 391.4 417.7 391.3ZM444.3 374.4C443.7 375.1 441.9 376 440.8 377.1C441.2 376.6 441.7 376.1 441.7 375.6C443.1 375.2 443.5 374.4 444.3 374.4ZM420.6 388.6C420.9 388.5 421.2 388.4 421.6 388.1C422.1 388.3 421.2 388.8 421.4 389.1C420.9 389.3 420.3 389.1 420.6 388.6ZM418.7 390.3C418.4 390 419.7 389.4 420 389C420.1 389.4 419.6 389.8 420 390.1C419 390.8 419.1 390.1 418.7 390.3ZM466.2 365.2C465.9 366 463.2 366.3 462.1 367C462.7 365.9 464.3 366.1 466.2 365.2ZM467 362.6C466.8 362.8 466.7 363.1 466.8 363.4C466.1 363.6 465.4 363.8 464.7 364C464.8 363.1 466.1 363.4 467 362.6ZM484.6 444.6C487.8 443.1 494 442.2 500.8 439.6C497.7 441.1 489.8 443.3 484.6 444.6ZM501 443.8C502.9 442.8 504.2 442.5 504.3 442.5C504.5 442.5 503.5 443.1 501 443.8ZM513.5 438.9C515.1 437.9 516.4 437.3 516.6 437.3C516.8 437.2 516 437.8 513.5 438.9ZM475.1 353.2C475.2 352.4 478.6 352.4 480.1 352C481 352 479.9 352.2 478.6 352.4C477.1 352.7 475.4 353 475.1 353.2ZM498.6 349C498.2 349.2 497 349.2 495.9 349.2C494.8 349.2 493.6 349.2 493.2 349.5C492.7 349.2 493.9 349.1 495.3 349C496.7 348.9 498.3 348.9 498.6 349ZM501.2 348.7C501.6 348.7 501.6 348.8 501.6 348.9C508 349 501.6 349.8 501.2 348.7ZM538.9 363.8C537 362.3 535.8 361.2 535.7 361C535.6 360.8 536.6 361.4 538.9 363.8ZM532.4 358.6C531.7 358.1 530.8 357.6 529.8 357.1C528.8 356.6 527.7 356 526.6 355.5C524.4 354.4 522.2 353.5 521.1 352.6C523.1 353.4 525.4 354.4 527.5 355.5C529.4 356.5 531.3 357.7 532.4 358.6ZM540.8 422.2C539.7 423.7 540 423.4 540.8 422.5C541.6 421.6 542.8 419.9 543.5 418.9C545.4 416.2 547.1 412.6 547.2 411.6C546.8 412.4 546.4 413.3 545.9 414.2C545.4 415.1 544.9 416.1 544.3 417.1C543.2 418.8 542 420.5 540.8 422.2Z" fill="url(#paint4_linear)"/>
<path d="M113.7 9L115.5 9.8L116 11.6L115.4 13.3L113.7 14L112.1 13.2L111 11.6L111.8 9.8L113.7 9Z" fill="#535FD7" fill-opacity="0.24"/>
<path d="M43.3 43L46.2 44.3L47 47.1L46.1 49.8L43.3 51L40.7 49.7L39 47.2L40.3 44.3L43.3 43Z" fill="#61EFFD"/>
<path d="M88.3 38L91.2 39.3L92 42.1L91.1 44.8L88.3 46L85.7 44.7L84 42.2L85.3 39.3L88.3 38Z" fill="#7C85E1"/>
<path d="M108.7 72L110.5 72.8L111 74.6L110.4 76.3L108.7 77L107.1 76.2L106 74.6L106.8 72.8L108.7 72ZM64.7 60L66.5 60.8L67 62.6L66.4 64.3L64.7 65L63.1 64.2L62 62.6L62.8 60.8L64.7 60Z" fill="#2FEAFC"/>
<path d="M64.7 4L66.5 4.8L67 6.6L66.4 8.3L64.7 9L63.1 8.2L62 6.6L62.8 4.8L64.7 4Z" fill="#93F4FE"/>
<path d="M121.7 43L123.5 43.8L124 45.6L123.4 47.3L121.7 48L120.1 47.2L119 45.6L119.8 43.8L121.7 43Z" fill="#61EFFD" fill-opacity="0.24"/>
<path d="M171.6 63L172.7 63.5L173 64.6L172.7 65.6L171.7 66L170.7 65.5L170.1 64.6L170.6 63.5L171.6 63Z" fill="white"/>
<path d="M616.7 604L618.5 604.8L619 606.6L618.4 608.3L616.7 609L615.1 608.2L614 606.6L614.8 604.8L616.7 604Z" fill="#93F4FE" fill-opacity="0.32"/>
<path d="M690.7 546L692.5 546.8L693 548.6L692.4 550.3L690.7 551L689.1 550.2L688 548.6L688.8 546.8L690.7 546Z" fill="#182538"/>
<path d="M633.7 585L635.5 585.8L636 587.6L635.4 589.3L633.7 590L632.1 589.2L631 587.6L631.8 585.8L633.7 585Z" fill="#93F4FE"/>
<path d="M606.3 311L609.2 312.3L610 315.1L609.1 317.8L606.3 319L603.7 317.7L602 315.2L603.3 312.3L606.3 311ZM639.7 319L641.5 319.8L642 321.6L641.4 323.3L639.7 324L638.1 323.2L637 321.6L637.8 319.8L639.7 319Z" fill="#61EFFD"/>
<path d="M611.7 337L613.5 337.8L614 339.6L613.4 341.3L611.7 342L610.1 341.2L609 339.6L609.8 337.8L611.7 337Z" fill="#7C85E1"/>
<path d="M595.6 605L596.7 605.5L597 606.6L596.7 607.6L595.7 608L594.7 607.5L594.1 606.5L594.6 605.4L595.6 605Z" fill="white"/>
<path d="M427.4 523.1C427.6 522.7 427.9 522.4 428 522C428.1 521.6 428.3 521.2 428.4 520.8C428.5 520.4 428.1 519.8 428.2 519.4C428.3 519 427.9 518.4 427.9 517.9C427.9 517.5 428.1 517.1 428.1 516.6C428.1 516.2 428.2 515.7 428.2 515.3C428.2 514.9 428.8 514.6 428.8 514.2C428.8 513.8 428.2 513 428.2 512.6C428.2 512.2 428.6 511.9 428.7 511.4C428.8 510.9 428.9 510.4 429 510C429.2 509.5 429.7 509.3 429.9 508.8C430.1 508.4 430.2 507.9 430.4 507.4C430.6 507 430.5 506.4 430.7 505.9C430.8 505.4 431.3 505.1 431.5 504.7C431.7 504.3 431.5 503.7 431.8 503.3C432 502.9 432.1 502.4 432.3 502C432.6 501.6 433.4 501.5 433.7 501.1C434 500.8 433.6 500.1 434 499.8C434.3 499.5 435.3 499.5 435.7 499.3C436.1 499 435.8 498.4 436.1 498.1C436.5 497.8 437.1 497.7 437.5 497.4C437.9 497.1 438.5 497 438.9 496.7C439 496.6 439.6 496.9 439.5 497C439.2 497.4 439.2 497.9 439 498.3C438.8 498.7 438 498.8 437.8 499.3C437.6 499.7 438 500.4 437.9 500.9C437.8 501.4 437.5 501.7 437.4 502.2C437.3 502.7 437.4 503.2 437.3 503.7C437.2 504.2 437.3 504.7 437.2 505.2C437.1 505.7 436.8 506 436.7 506.5C436.6 507 436.3 507.3 436.1 507.7C436 508.1 436.2 508.8 436 509.2C435.8 509.6 435.7 510.1 435.4 510.5C435.1 510.9 434.9 511.3 434.6 511.7C434.2 512 433.6 512.3 433.1 512.6C432.6 512.9 432.3 513.3 432 513.7C431.7 514.1 431 514.3 430.8 514.7C430.6 515.1 430.5 515.6 430.4 516.1C430.3 516.6 430.3 517.1 430.2 517.6C430.1 518 430 518.4 429.9 518.8C429.8 519.2 429.7 519.6 429.6 520C429.5 520.4 429.4 520.8 429.2 521.2C429 521.6 428.6 521.9 428.4 522.2C428.2 522.6 428 522.9 427.7 523.3C427.7 523.2 427.4 523.1 427.4 523.1Z" fill="#61EFFD"/>
<path d="M428.3 464.5C428.6 464.5 429 464.6 429.4 464.5C429.7 464.4 430.1 464.4 430.4 464.2C430.7 464 430.9 463.4 431.2 463.2C431.5 463 431.7 462.4 432 462.1C432.3 461.9 432.6 461.8 432.9 461.5C433.2 461.3 433.5 461.1 433.7 460.8C434 460.5 434.4 460.9 434.7 460.6C435 460.3 435 459.4 435.2 459.1C435.5 458.9 435.9 459 436.1 458.7C436.4 458.5 436.7 458.2 437.1 458.1C437.4 457.9 437.9 458.1 438.3 458C438.6 457.9 438.9 457.6 439.3 457.4C439.6 457.2 439.9 456.8 440.2 456.6C440.5 456.4 441 456.5 441.3 456.3C441.6 456.1 441.8 455.6 442.1 455.5C442.4 455.4 442.7 455 443 454.9C443.4 454.8 444 455.3 444.4 455.2C444.7 455.1 444.8 454.5 445.1 454.4C445.5 454.4 446.2 455 446.6 455C447 455 447 454.3 447.4 454.3C447.8 454.3 448.4 454.6 448.7 454.6C449.1 454.6 449.7 454.9 450 454.8C450.1 454.8 450.5 455.4 450.4 455.4C450 455.5 449.8 456 449.5 456.2C449.2 456.4 448.5 456 448.2 456.3C447.9 456.6 447.9 457.3 447.6 457.6C447.3 457.9 446.9 458 446.6 458.3C446.3 458.6 446.1 459.1 445.8 459.4C445.5 459.7 445.3 460.1 445 460.4C444.7 460.7 444.3 460.7 444 461C443.7 461.3 443.3 461.3 442.9 461.5C442.6 461.7 442.4 462.3 442 462.5C441.6 462.7 441.3 462.9 440.9 463C440.5 463.1 440.1 463.2 439.7 463.2C439.3 463.2 438.7 462.9 438.2 462.7C437.7 462.5 437.3 462.6 436.9 462.6C436.5 462.6 435.9 462.2 435.6 462.3C435.2 462.4 434.9 462.6 434.5 462.8C434.2 463 433.9 463.3 433.5 463.5C433.2 463.7 432.9 463.8 432.5 464C432.2 464.2 431.9 464.3 431.5 464.4C431.2 464.5 430.8 464.7 430.5 464.7C430.1 464.8 429.8 464.6 429.4 464.6C429 464.6 428.7 464.7 428.3 464.6C428.3 464.9 428.3 464.5 428.3 464.5Z" fill="#2FEAFC" fill-opacity="0.64"/>
<path d="M510.2 452.6C510.7 452.8 511.1 453.2 511.7 453.4C512.2 453.6 512.7 453.8 513.3 453.9C513.8 454 514.5 453.7 515.1 453.8C515.7 453.9 516.4 453.5 516.9 453.6C517.5 453.7 518 453.8 518.5 453.9C519.1 453.9 519.6 454.1 520.2 454.1C520.8 454.1 521.1 454.7 521.7 454.8C522.3 454.8 523.1 454.2 523.6 454.2C524.2 454.3 524.6 454.7 525.1 454.7C525.7 454.8 526.3 454.9 526.9 455.1C527.5 455.3 528 455.8 528.5 456C529.1 456.2 529.7 456.3 530.3 456.5C530.9 456.7 531.6 456.6 532.2 456.8C532.8 456.9 533.3 457.4 533.9 457.6C534.5 457.8 535.2 457.6 535.7 457.8C536.3 458 536.9 458.1 537.5 458.3C538 458.6 538.4 459.5 538.9 459.8C539.4 460.1 540.1 459.7 540.6 460.1C541.1 460.4 541.3 461.5 541.7 461.9C542.2 462.3 542.9 461.9 543.3 462.3C543.8 462.7 544.1 463.4 544.5 463.7C545 464.1 545.3 464.8 545.8 465.1C545.9 465.2 545.7 465.9 545.6 465.8C545.1 465.5 544.4 465.6 543.8 465.3C543.2 465.1 542.9 464.3 542.3 464.1C541.7 463.9 540.9 464.4 540.3 464.2C539.7 464.1 539.1 463.8 538.5 463.7C537.9 463.6 537.2 463.7 536.6 463.7C536 463.6 535.3 463.7 534.7 463.6C534.1 463.5 533.6 463.2 532.9 463C532.2 462.8 531.8 462.5 531.2 462.4C530.6 462.3 529.9 462.5 529.3 462.3C528.7 462.1 528.1 462 527.5 461.7C526.9 461.4 526.4 461.2 525.8 460.8C525.2 460.4 524.9 459.7 524.4 459.2C523.9 458.7 523.4 458.4 522.9 458C522.4 457.7 522 456.9 521.4 456.7C520.8 456.5 520.2 456.4 519.6 456.2C519 456.1 518.3 456.1 517.7 456C517.2 455.9 516.6 455.7 516.1 455.6C515.6 455.5 515 455.4 514.5 455.2C514 455 513.4 454.9 512.9 454.7C512.4 454.5 512 454.1 511.5 453.8C511 453.5 510.5 453.3 510 453C510.1 452.9 510.2 452.5 510.2 452.6ZM542.1 562.3C541.8 561.8 541.7 561.3 541.4 560.8C541.1 560.4 540.8 559.9 540.5 559.5C540.1 559.1 539.4 559 539 558.6C538.6 558.2 537.8 558.1 537.4 557.8C537 557.4 536.7 557 536.3 556.7C535.9 556.4 535.5 556 535.1 555.6C534.7 555.3 534.7 554.6 534.3 554.2C533.9 553.9 532.8 554 532.4 553.7C532 553.4 531.9 552.8 531.4 552.5C530.9 552.1 530.5 551.7 530.1 551.3C529.7 550.9 529.6 550.2 529.2 549.7C528.8 549.2 528.3 548.9 527.9 548.4C527.5 547.9 526.9 547.7 526.5 547.3C526.1 546.9 525.9 546.3 525.5 545.8C525.1 545.4 524.4 545.2 524.1 544.7C523.7 544.2 523.2 543.9 522.9 543.5C522.6 543 522.7 542.1 522.4 541.6C522.1 541.1 521.3 541.1 521.1 540.7C520.9 540.2 521.2 539.2 520.9 538.7C520.7 538.2 519.9 538.2 519.7 537.7C519.5 537.2 519.5 536.4 519.2 535.9C519 535.4 519 534.6 518.7 534.2C518.6 534.1 519.1 533.6 519.2 533.7C519.6 534.2 520.2 534.4 520.6 534.8C521 535.2 521 536.1 521.4 536.5C521.9 536.9 522.7 536.8 523.2 537.2C523.7 537.6 524 538 524.5 538.4C525 538.8 525.7 539 526.2 539.3C526.7 539.7 527.3 539.9 527.8 540.3C528.3 540.7 528.6 541.2 529.1 541.6C529.6 542 529.9 542.5 530.3 543C530.7 543.4 531.5 543.6 531.9 544.1C532.3 544.6 532.7 545 533.1 545.5C533.4 546 533.8 546.5 534 547.1C534.2 547.7 534.2 548.5 534.3 549.2C534.4 549.9 534.7 550.4 535 551C535.2 551.6 535.2 552.4 535.5 552.9C535.9 553.4 536.3 553.8 536.7 554.3C537.1 554.7 537.7 555.1 538.1 555.5C538.5 555.9 538.8 556.3 539.2 556.7C539.6 557.1 539.9 557.5 540.3 558C540.6 558.4 541 558.9 541.3 559.3C541.6 559.8 541.7 560.4 541.9 560.9C542.1 561.4 542.4 561.9 542.5 562.4C542.5 562.2 542.2 562.4 542.1 562.3Z" fill="#182538"/>
<path d="M547.8 531.6C547.9 531.6 548.1 531.6 548.2 531.6C548.3 531.5 548.4 531.5 548.4 531.4C548.4 531.3 548.2 530.8 548.2 530.6C548.2 530.4 547.9 529.9 547.9 529.8C547.9 529.6 548 529.6 548 529.4C548 529.2 548 529.1 548 528.9C548 528.7 548.4 529 548.3 528.8C548.3 528.6 547.8 527.8 547.8 527.7C547.8 527.5 548 527.6 548 527.5C548 527.3 548.1 527.2 548.1 527.1C548.2 527 548.5 527.2 548.6 527.1C548.7 527 548.7 526.8 548.8 526.7C548.9 526.6 548.8 526.3 548.9 526.2C549 526.1 549.2 526.2 549.3 526.1C549.4 526 549.2 525.6 549.3 525.6C549.4 525.5 549.4 525.3 549.5 525.3C549.6 525.3 550.2 525.8 550.4 525.8C550.6 525.8 550.3 525.3 550.5 525.3C550.7 525.4 551.4 526 551.6 526.1C551.8 526.2 551.5 525.7 551.8 525.8C552 525.9 552.4 526.2 552.6 526.3C552.8 526.4 553.2 526.7 553.4 526.8C553.5 526.8 553.9 527.3 553.9 527.4C553.7 527.4 553.8 527.7 553.7 527.8C553.6 527.9 553.1 527.5 553 527.6C552.9 527.7 553.3 528.3 553.2 528.5C553.2 528.7 553 528.7 553 528.9C553 529.1 553.1 529.4 553.1 529.6C553.1 529.8 553.2 530.1 553.1 530.2C553.1 530.4 552.9 530.3 552.9 530.5C552.9 530.7 552.7 530.6 552.6 530.8C552.5 530.9 552.7 531.4 552.6 531.5C552.5 531.6 552.5 531.7 552.3 531.8C552.2 531.8 552 531.9 551.8 531.8C551.6 531.7 551.2 531.4 550.9 531.3C550.6 531.1 550.4 531.1 550.2 531.1C550 531.1 549.6 530.7 549.4 530.8C549.3 530.9 549.3 531 549.2 531.2C549.1 531.3 549.2 531.6 549.2 531.8C549.2 531.9 549.1 532 549 532.1C548.9 532.2 548.9 532.4 548.8 532.4C548.7 532.5 548.7 532.6 548.6 532.7C548.5 532.7 548.3 532.6 548.1 532.6C547.9 532.6 547.9 532.7 547.6 532.6C547.9 531.8 547.8 531.7 547.8 531.6Z" fill="#304057"/>
</g>
<defs>
<linearGradient id="paint0_linear" x1="989.742" y1="570.284" x2="599.843" y2="133.898" gradientUnits="userSpaceOnUse">
<stop stop-color="#7C85E1" stop-opacity="0"/>
<stop offset="0.7806" stop-color="#57297A" stop-opacity="0.86"/>
<stop offset="0.9932" stop-color="#86288D"/>
</linearGradient>
<linearGradient id="paint1_linear" x1="684.446" y1="245.363" x2="158.207" y2="175.228" gradientUnits="userSpaceOnUse">
<stop stop-color="#7C85E1" stop-opacity="0"/>
<stop offset="0.9974" stop-color="#632C8C"/>
</linearGradient>
<linearGradient id="paint2_linear" x1="373.22" y1="438.272" x2="213.739" y2="152.724" gradientUnits="userSpaceOnUse">
<stop stop-color="#7C85E1" stop-opacity="0"/>
<stop offset="0.676" stop-color="#632C8C" stop-opacity="0.84"/>
<stop offset="0.9891" stop-color="#632C8C"/>
</linearGradient>
<linearGradient id="paint3_linear" x1="456.39" y1="504.583" x2="971.82" y2="666.6" gradientUnits="userSpaceOnUse">
<stop stop-color="#7C85E1" stop-opacity="0"/>
<stop offset="0.9984" stop-color="#6F2B8C"/>
</linearGradient>
<linearGradient id="paint4_linear" x1="365.013" y1="385.827" x2="445.252" y2="436.797" gradientUnits="userSpaceOnUse">
<stop stop-color="#2FEAFC"/>
<stop offset="1" stop-color="#2FEAFC" stop-opacity="0"/>
</linearGradient>
<clipPath id="clip0">
<rect width="733" height="749" fill="white"/>
</clipPath>
</defs>
</svg>
